<svg id="Capa_1" enable-background="new 0 0 511.948 511.948" height="512" viewBox="0 0 511.948 511.948" width="512" xmlns="http://www.w3.org/2000/svg"><g><path d="m484.864 233.273c-16.271-18.813-38.335-31.628-62.539-36.417-6.888-19.659-17.64-38.158-31.355-53.958l56.597-56.597c6.823-6.823 6.823-17.926 0-24.749l-14.142-14.142c-6.824-6.823-17.926-6.823-24.75 0l-60.368 60.368c-14.525-8.355-30.091-14.394-46.405-18.011.203-1.503.318-3.034.318-4.591 0-18.786-15.283-34.069-34.069-34.069s-34.069 15.283-34.069 34.069c0 1.232.07 2.448.198 3.647-15.539 2.994-30.519 8.191-44.608 15.492-3.678 1.906-5.114 6.432-3.209 10.11 1.334 2.575 3.952 4.051 6.665 4.051 1.162 0 2.342-.271 3.444-.842 13.445-6.967 27.782-11.826 42.662-14.473 6.022 9.648 16.73 16.085 28.917 16.085 11.849 0 22.3-6.083 28.406-15.287 14.265 2.951 27.916 7.932 40.723 14.848l-271.929 271.928c-8.127-4.409-15.582-9.977-22.196-16.592-37.549-37.549-37.549-98.646-.001-136.194 13.378-13.378 30.001-22.338 48.335-26.147 4.505 12.455 16.447 21.381 30.437 21.381 17.842 0 32.357-14.515 32.357-32.357 0-12.208-6.798-22.855-16.805-28.364 8.142-13.193 18.226-25.009 30.053-35.19 3.14-2.703 3.494-7.438.791-10.577-2.702-3.139-7.438-3.493-10.576-.791-14.152 12.182-26.036 26.495-35.366 42.577-.152-.002-.302-.011-.455-.011-16.486 0-30.122 12.396-32.1 28.355-21.755 4.232-41.475 14.716-57.278 30.519-43.396 43.397-43.396 114.01 0 157.407 6.585 6.585 13.896 12.271 21.808 16.981l-23.924 23.924c-3.305 3.305-5.125 7.7-5.125 12.375s1.82 9.069 5.125 12.375l14.142 14.142c3.412 3.412 7.893 5.118 12.375 5.118 4.48 0 8.963-1.706 12.375-5.118l47.354-47.354c23.095-1.128 45.351-9.448 63.44-23.704 19.885 12.013 42.403 19.804 65.473 22.616 4.106.504 7.851-2.426 8.353-6.538.501-4.112-2.426-7.851-6.538-8.352-22.97-2.799-44.437-10.621-63.803-23.247-2.813-1.835-6.504-1.574-9.033.637-11.572 10.119-25.418 17.261-40.226 20.922l151.705-151.708c2.929-2.929 2.929-7.678 0-10.606s-7.677-2.929-10.607 0l-216.726 216.725c-.975.975-2.561.975-3.535 0l-14.142-14.142c-.976-.975-.976-2.561 0-3.536l378.245-378.244c.975-.975 2.561-.975 3.535 0l14.142 14.142c.976.975.976 2.561 0 3.536l-135.337 135.337c-2.929 2.929-2.929 7.678 0 10.606 2.93 2.929 7.678 2.928 10.607 0l68.099-68.099c13.053 15.253 23.094 33.199 29.154 52.206.864 2.71 3.188 4.699 6 5.134 22.466 3.472 43.077 14.91 58.035 32.206 15.108 17.47 23.43 39.83 23.43 62.96 0 53.102-43.202 96.304-96.304 96.304-19.982 0-39.147-6.065-55.423-17.541-2.326-1.64-5.38-1.823-7.886-.47-16.988 9.173-35.373 14.912-54.643 17.058-4.117.458-7.082 4.167-6.624 8.284.459 4.117 4.179 7.081 8.284 6.624 19.671-2.191 38.506-7.788 56.057-16.65 17.964 11.592 38.688 17.695 60.234 17.695 61.373 0 111.304-49.931 111.304-111.304.001-26.732-9.618-52.576-27.083-72.772zm-216.713-129.028c-10.515 0-19.069-8.555-19.069-19.069s8.555-19.069 19.069-19.069 19.069 8.555 19.069 19.069-8.554 19.069-19.069 19.069zm-146.226 79.223c9.571 0 17.357 7.786 17.357 17.357s-7.786 17.357-17.357 17.357c-9.57 0-17.356-7.786-17.356-17.357s7.786-17.357 17.356-17.357z"/><path d="m323.276 77.116c1.465 1.464 3.385 2.197 5.304 2.197s3.839-.732 5.304-2.197l5.71-5.71 5.71 5.71c1.465 1.464 3.385 2.197 5.304 2.197s3.839-.732 5.304-2.197c2.929-2.929 2.929-7.678 0-10.606l-5.711-5.711 5.711-5.711c2.929-2.929 2.929-7.678 0-10.606-2.93-2.929-7.678-2.929-10.607 0l-5.71 5.71-5.71-5.71c-2.93-2.929-7.678-2.929-10.607 0s-2.929 7.678 0 10.606l5.711 5.711-5.711 5.711c-2.931 2.928-2.931 7.677-.002 10.606z"/><path d="m109.318 137.678c16.543 0 30.001-13.458 30.001-30.001s-13.458-30-30.001-30c-16.542 0-30 13.458-30 30s13.458 30.001 30 30.001zm0-45.002c8.271 0 15.001 6.729 15.001 15s-6.729 15.001-15.001 15.001-15-6.729-15-15.001 6.728-15 15-15z"/><path d="m36.8 180.287c1.465 1.464 3.385 2.197 5.304 2.197s3.839-.732 5.304-2.197l3.995-3.995 3.995 3.995c1.465 1.465 3.384 2.197 5.304 2.197 1.919 0 3.839-.732 5.304-2.197 2.929-2.929 2.929-7.677 0-10.606l-3.995-3.995 3.995-3.995c2.929-2.929 2.929-7.678 0-10.606-2.93-2.929-7.678-2.929-10.607 0l-3.995 3.995-3.995-3.995c-2.929-2.929-7.677-2.93-10.607 0-2.929 2.929-2.929 7.677 0 10.606l3.995 3.995-3.995 3.995c-2.93 2.929-2.93 7.677-.002 10.606z"/></g></svg>