<svg width="15" height="16" viewBox="0 0 15 16" fill="none" xmlns="http://www.w3.org/2000/svg">
<path d="M14.1875 12.5H12.1704L10.25 10.5796V6.3125L9.6875 5.75H8V3.5H8.5625L9.125 2.9375V0.6875L8.5625 0.125H6.3125L5.75 0.6875V2.9375L6.3125 3.5H6.875V5.75H5.1875L4.625 6.3125V10.5796L2.70462 12.5H0.6875L0.125 13.0625V15.3125L0.6875 15.875H2.9375L3.5 15.3125V13.2954L5.42037 11.375H9.45463L11.375 13.2954V15.3125L11.9375 15.875H14.1875L14.75 15.3125V13.0625L14.1875 12.5ZM6.875 1.25H8V2.375H6.875V1.25ZM5.75 6.875H9.125V10.25H5.75V6.875ZM2.375 14.75H1.25V13.625H2.375V14.75ZM13.625 14.75H12.5V13.625H13.625V14.75Z" fill="black"/>
</svg>
