<svg id="Layer_1" enable-background="new 0 0 511.958 511.958" height="512" viewBox="0 0 511.958 511.958" width="512" xmlns="http://www.w3.org/2000/svg"><g><g><path d="m255.979 511.958c-11.412 0-22.14-4.444-30.209-12.513l-213.257-213.257c-8.069-8.069-12.513-18.797-12.513-30.209s4.444-22.14 12.513-30.209l213.257-213.257c8.069-8.069 18.797-12.513 30.209-12.513s22.14 4.444 30.209 12.513l213.257 213.257c8.069 8.069 12.513 18.797 12.513 30.209s-4.444 22.14-12.513 30.209l-213.257 213.257c-8.069 8.069-18.797 12.513-30.209 12.513zm0-481.958c-3.398 0-6.593 1.323-8.996 3.726l-213.257 213.257c-4.96 4.96-4.96 13.032 0 17.992l213.257 213.257c2.403 2.403 5.598 3.726 8.996 3.726s6.593-1.323 8.996-3.726l213.257-213.257c4.96-4.96 4.96-13.032 0-17.992l-213.257-213.257c-2.403-2.403-5.598-3.726-8.996-3.726z"/></g><g><path d="m255.979 449.446-193.467-193.467 193.467-193.467 193.467 193.467zm-151.04-193.467 151.04 151.04 151.04-151.04-151.04-151.04z"/></g></g></svg>