<svg width="18" height="18" viewBox="0 0 18 18" fill="none" xmlns="http://www.w3.org/2000/svg">
<path d="M17.8299 16.6339L16.2549 15.0589C17.7551 12.9036 16.2046 9.93159 13.5726 9.93159C12.5689 9.93159 11.6696 10.3868 11.07 11.1015L10.1328 10.6831C9.97138 10.611 10.38 10.6326 4.25715 10.6326C4.08567 10.6326 4.23581 10.5869 1.47807 11.8182C0.580173 12.2192 0 13.1136 0 14.0969V16.6578C0 16.9784 0.259984 17.2384 0.580645 17.2384C0.901307 17.2384 1.16129 16.9784 1.16129 16.6578V14.0969C1.16129 13.5712 1.47146 13.093 1.95155 12.8786L4.0177 11.956L6.57599 16.31C6.80008 16.6914 7.35304 16.6916 7.57724 16.31L10.1355 11.956L10.4912 12.1149C9.81904 14.022 11.0337 16.0593 12.9919 16.4121V16.6578C12.9919 16.9784 13.2519 17.2384 13.5726 17.2384C13.8932 17.2384 14.1532 16.9784 14.1532 16.6578V16.4121C14.6223 16.3276 15.0568 16.1424 15.4338 15.88L17.0088 17.455C17.2355 17.6818 17.6031 17.6818 17.8299 17.455C18.0567 17.2283 18.0567 16.8607 17.8299 16.6339ZM8.42995 12.5665L8.21268 11.7939H8.88387L8.42995 12.5665ZM5.26932 11.7939H5.94051L5.72324 12.5665L5.26932 11.7939ZM7.07661 14.8697L6.53912 13.955L7.07661 12.0436L7.61411 13.955L7.07661 14.8697ZM11.4677 13.1977C11.4677 12.0371 12.412 11.0929 13.5726 11.0929C14.7332 11.0929 15.6774 12.0371 15.6774 13.1977C15.6774 14.3583 14.7332 15.3026 13.5726 15.3026C12.412 15.3026 11.4677 14.3583 11.4677 13.1977ZM7.09476 9.12072C9.50603 9.12072 11.4677 7.15901 11.4677 4.74774C11.4677 2.33647 9.50603 0.374756 7.09476 0.374756C4.68348 0.374756 2.72177 2.33647 2.72177 4.74774C2.72177 7.15901 4.68348 9.12072 7.09476 9.12072ZM7.09476 1.53605C8.86569 1.53605 10.3065 2.97681 10.3065 4.74774C10.3065 6.51867 8.86569 7.95943 7.09476 7.95943C5.32383 7.95943 3.88306 6.51867 3.88306 4.74774C3.88306 2.97681 5.32383 1.53605 7.09476 1.53605Z" fill="black"/>
</svg>
