<svg width="18" height="17" viewBox="0 0 18 17" fill="none" xmlns="http://www.w3.org/2000/svg">
<path d="M14.5928 7.90189C16.4376 6.24344 16.5887 3.40352 14.9302 1.55873C13.4091 -0.133245 10.8632 -0.420683 9.00318 0.889609C6.97556 -0.541369 4.17184 -0.0576843 2.74087 1.96991C1.42783 3.8304 1.7141 6.37901 3.40716 7.90185C1.30349 9.01078 -0.00947827 11.197 5.15281e-05 13.575V15.5036C5.15281e-05 15.8586 0.287866 16.1465 0.642917 16.1465H17.3571C17.7121 16.1465 17.9999 15.8586 17.9999 15.5036V13.575C18.0094 11.197 16.6965 9.01078 14.5928 7.90189ZM11.5714 1.36083C13.3441 1.35887 14.7827 2.79433 14.7847 4.56702C14.7861 5.83129 14.0453 6.97859 12.8924 7.4975C12.8429 7.51998 12.7934 7.54055 12.7433 7.56179C12.5847 7.62579 12.421 7.67672 12.2541 7.71416C12.222 7.72124 12.1898 7.72508 12.157 7.73152C11.9705 7.76727 11.7812 7.7864 11.5913 7.78874C11.5058 7.78874 11.4196 7.7823 11.3341 7.77461C11.302 7.77461 11.2698 7.77461 11.2377 7.76817C10.8723 7.72516 10.5169 7.6204 10.1866 7.45832C10.1744 7.45252 10.1603 7.45316 10.1481 7.44804C10.0838 7.41719 10.0195 7.39018 9.9623 7.35545C9.96746 7.34901 9.97066 7.34197 9.97579 7.33553C10.2706 6.95675 10.503 6.53337 10.6643 6.08132L10.6842 6.02731C10.7575 5.8114 10.8145 5.59029 10.8546 5.3658C10.8604 5.33302 10.8648 5.3015 10.87 5.26617C10.9072 5.03764 10.9267 4.80662 10.9285 4.57508C10.9267 4.344 10.9071 4.1134 10.87 3.88528C10.8648 3.85187 10.8604 3.82099 10.8546 3.78565C10.8145 3.5612 10.7575 3.34005 10.6842 3.12414L10.6643 3.07013C10.503 2.61808 10.2705 2.1947 9.97579 1.81592C9.97063 1.80948 9.96742 1.80244 9.9623 1.796C10.4507 1.51108 11.0059 1.36086 11.5714 1.36083ZM3.2143 4.57512C3.20975 2.80454 4.64136 1.3655 6.41195 1.36094C7.2419 1.35879 8.04037 1.67862 8.63936 2.25312C8.67665 2.28913 8.7133 2.32511 8.74927 2.3624C8.85967 2.47807 8.96149 2.60162 9.054 2.73203C9.08228 2.77188 9.10801 2.81433 9.13434 2.85546C9.22418 2.99374 9.30305 3.13883 9.37025 3.28939C9.38633 3.32604 9.39854 3.36333 9.41266 3.39994C9.48043 3.56647 9.53376 3.73853 9.57211 3.91421C9.57663 3.9335 9.57791 3.95278 9.58175 3.97271C9.66319 4.37187 9.66319 4.78338 9.58175 5.18254C9.57791 5.20247 9.57659 5.22176 9.57211 5.24104C9.5338 5.41672 9.48046 5.58878 9.41266 5.75531C9.39854 5.79196 9.3863 5.82925 9.37025 5.86586C9.30298 6.01619 9.2241 6.16106 9.13434 6.29915C9.10797 6.34028 9.08228 6.38273 9.054 6.42259C8.96152 6.55303 8.85967 6.67654 8.74927 6.79221C8.71326 6.82951 8.67661 6.86552 8.63936 6.90149C8.37908 7.14953 8.07898 7.35206 7.75158 7.50062C7.69952 7.52439 7.64679 7.54628 7.59345 7.56492C7.43849 7.62643 7.27904 7.67585 7.11647 7.71276C7.07598 7.72177 7.03417 7.72689 6.99304 7.73397C6.81849 7.76648 6.64149 7.7843 6.46396 7.78735H6.39326C6.21574 7.78433 6.03874 7.76648 5.86419 7.73397C5.82306 7.72689 5.78125 7.72177 5.74075 7.71276C5.57818 7.67585 5.4187 7.62643 5.26377 7.56492C5.2104 7.54371 5.1577 7.52187 5.10565 7.50062C3.95552 6.98134 3.21577 5.83701 3.2143 4.57512ZM11.5714 14.8608H1.28574V13.5751C1.27633 11.3967 2.64884 9.45171 4.70442 8.73053C5.80791 9.18996 7.04916 9.18996 8.1527 8.73053C8.36732 8.80896 8.57649 8.90151 8.77884 9.00761C8.91256 9.07639 9.03599 9.15482 9.16455 9.23388C9.24813 9.28594 9.33296 9.33675 9.41334 9.39397C9.53742 9.48203 9.65441 9.57782 9.76948 9.67617C9.84342 9.74047 9.91669 9.80473 9.98611 9.86903C10.0922 9.9693 10.1918 10.0754 10.2876 10.184C10.3564 10.2625 10.4232 10.3422 10.4869 10.4245C10.5711 10.5325 10.6515 10.643 10.726 10.7568C10.7903 10.8532 10.8476 10.9535 10.9041 11.0538C10.9684 11.1644 11.0275 11.275 11.0815 11.39C11.1355 11.5051 11.1831 11.6311 11.2294 11.7539C11.2698 11.8606 11.3129 11.9667 11.3463 12.0753C11.3914 12.2244 11.4228 12.3787 11.4543 12.533C11.4736 12.6243 11.4987 12.7137 11.5128 12.8062C11.5509 13.0607 11.5705 13.3177 11.5713 13.5751V14.8608H11.5714ZM16.7142 14.8608H12.8571V13.5751C12.8571 13.3738 12.8455 13.1746 12.8275 12.9772C12.8224 12.9194 12.8134 12.8621 12.807 12.8043C12.7896 12.6622 12.7697 12.5214 12.7427 12.3819C12.7311 12.3224 12.7189 12.2626 12.706 12.2025C12.6752 12.0594 12.6394 11.9176 12.5987 11.777C12.5852 11.7307 12.5729 11.6838 12.5588 11.6381C12.3788 11.0627 12.118 10.5158 11.7842 10.0137L11.7591 9.97702C11.6485 9.81286 11.5305 9.6541 11.4049 9.50068L11.4004 9.49488C11.2718 9.33547 11.1323 9.18051 10.9858 9.03394C10.9941 9.03394 11.0031 9.03394 11.0121 9.03394C11.1935 9.05779 11.3762 9.07067 11.5592 9.07251H11.5946C11.7639 9.07104 11.933 9.06008 12.1012 9.03974C12.1539 9.0333 12.2059 9.02366 12.2586 9.0153C12.3954 8.99432 12.5304 8.96708 12.6636 8.93367C12.7016 8.92403 12.7401 8.91503 12.7787 8.9041C12.9536 8.85653 13.1254 8.79811 13.293 8.72925C15.3501 9.44971 16.7238 11.3955 16.7143 13.5751V14.8608H16.7142Z" fill="black"/>
</svg>
