<svg width="17" height="13" viewBox="0 0 17 13" fill="none" xmlns="http://www.w3.org/2000/svg">
<path d="M8.1 0.400025C7.44268 0.399802 6.80785 0.639377 6.31456 1.07382C5.82128 1.50827 5.50342 2.10774 5.4206 2.75983C5.33778 3.41191 5.49568 4.07181 5.8647 4.61578C6.23371 5.15975 6.78849 5.55042 7.425 5.71452V7.60002H2.7C1.98392 7.60002 1.29716 7.88449 0.790812 8.39084C0.284464 8.89718 0 9.58394 0 10.3C0 11.0161 0.284464 11.7029 0.790812 12.2092C1.29716 12.7156 1.98392 13 2.7 13H13.5C14.2161 13 14.9028 12.7156 15.4092 12.2092C15.9155 11.7029 16.2 11.0161 16.2 10.3C16.2 9.58394 15.9155 8.89718 15.4092 8.39084C14.9028 7.88449 14.2161 7.60002 13.5 7.60002H8.775V5.71452C9.41012 5.54901 9.96324 5.15789 10.331 4.61427C10.6987 4.07064 10.856 3.41171 10.7733 2.76061C10.6906 2.10951 10.3736 1.5108 9.88164 1.07637C9.38966 0.641936 8.75633 0.401511 8.1 0.400025ZM6.75 3.10002C6.75 2.74198 6.89223 2.3986 7.14541 2.14543C7.39858 1.89226 7.74196 1.75002 8.1 1.75002C8.45804 1.75002 8.80142 1.89226 9.05459 2.14543C9.30777 2.3986 9.45 2.74198 9.45 3.10002C9.45 3.45807 9.30777 3.80144 9.05459 4.05462C8.80142 4.30779 8.45804 4.45002 8.1 4.45002C7.74196 4.45002 7.39858 4.30779 7.14541 4.05462C6.89223 3.80144 6.75 3.45807 6.75 3.10002ZM2.7 8.95002H13.5C13.858 8.95002 14.2014 9.09226 14.4546 9.34543C14.7078 9.59861 14.85 9.94198 14.85 10.3C14.85 10.6581 14.7078 11.0014 14.4546 11.2546C14.2014 11.5078 13.858 11.65 13.5 11.65H2.7C2.34196 11.65 1.99858 11.5078 1.74541 11.2546C1.49223 11.0014 1.35 10.6581 1.35 10.3C1.35 9.94198 1.49223 9.59861 1.74541 9.34543C1.99858 9.09226 2.34196 8.95002 2.7 8.95002Z" fill="black"/>
</svg>
